<?xml version="1.0" encoding="UTF-8" standalone="no"?>
<!-- Created with Inkscape (http://www.inkscape.org/) -->

<svg
   xmlns:dc="http://purl.org/dc/elements/1.1/"
   xmlns:cc="http://creativecommons.org/ns#"
   xmlns:rdf="http://www.w3.org/1999/02/22-rdf-syntax-ns#"
   xmlns:svg="http://www.w3.org/2000/svg"
   xmlns="http://www.w3.org/2000/svg"
   xmlns:sodipodi="http://sodipodi.sourceforge.net/DTD/sodipodi-0.dtd"
   xmlns:inkscape="http://www.inkscape.org/namespaces/inkscape"
   width="48"
   height="48"
   id="svg4826"
   sodipodi:version="0.32"
   inkscape:version="0.46+devel"
   version="1.0"
   sodipodi:docname="mail-mark-important.svg"
   inkscape:output_extension="org.inkscape.output.svg.inkscape">
  <defs
     id="defs4828">
    <inkscape:perspective
       sodipodi:type="inkscape:persp3d"
       inkscape:vp_x="0 : 526.18109 : 1"
       inkscape:vp_y="0 : 1000 : 0"
       inkscape:vp_z="744.09448 : 526.18109 : 1"
       inkscape:persp3d-origin="372.04724 : 350.78739 : 1"
       id="perspective4834" />
    <inkscape:perspective
       id="perspective4844"
       inkscape:persp3d-origin="0.5 : 0.33333333 : 1"
       inkscape:vp_z="1 : 0.5 : 1"
       inkscape:vp_y="0 : 1000 : 0"
       inkscape:vp_x="0 : 0.5 : 1"
       sodipodi:type="inkscape:persp3d" />
    <inkscape:perspective
       id="perspective4999"
       inkscape:persp3d-origin="0.5 : 0.33333333 : 1"
       inkscape:vp_z="1 : 0.5 : 1"
       inkscape:vp_y="0 : 1000 : 0"
       inkscape:vp_x="0 : 0.5 : 1"
       sodipodi:type="inkscape:persp3d" />
  </defs>
  <sodipodi:namedview
     id="base"
     pagecolor="#ffffff"
     bordercolor="#666666"
     borderopacity="1.0"
     inkscape:pageopacity="0.0"
     inkscape:pageshadow="2"
     inkscape:zoom="3.959798"
     inkscape:cx="-27.347761"
     inkscape:cy="15.441654"
     inkscape:document-units="px"
     inkscape:current-layer="layer1"
     showgrid="false"
     inkscape:window-width="1276"
     inkscape:window-height="721"
     inkscape:window-x="0"
     inkscape:window-y="24" />
  <metadata
     id="metadata4831">
    <rdf:RDF>
      <cc:Work
         rdf:about="">
        <dc:format>image/svg+xml</dc:format>
        <dc:type
           rdf:resource="http://purl.org/dc/dcmitype/StillImage" />
        <dc:title />
      </cc:Work>
    </rdf:RDF>
  </metadata>
  <g
     inkscape:label="Capa 1"
     inkscape:groupmode="layer"
     id="layer1"
     transform="translate(0,-1004.3622)">
    <g
       id="g4727"
       transform="matrix(1.1969549,0,0,1.194488,-511.83868,401.47154)">
      <g
         transform="translate(346.52931,-40.01505)"
         id="g4415">
        <rect
           style="fill:none;stroke:#eb9b24;stroke-width:2;stroke-opacity:1"
           id="rect2830-7-2-7-7-3"
           width="31.422714"
           height="20.529858"
           x="85.427399"
           y="556.49597"
           rx="2.8690305" />
        <path
           style="fill:none;stroke:#fabe1b;stroke-width:2;stroke-opacity:1"
           d="m 90.536068,561.06892 8.03571,7.94644 c 2.749402,2.63714 4.189152,1.45446 5.535722,0 l 7.20982,-7.92412"
           id="path2832-9-2-0-0-4"
           sodipodi:nodetypes="cccc" />
        <path
           style="fill:#000000;stroke:#fabe1b;stroke-width:2;stroke-opacity:1"
           d="m 90.000358,572.85464 6.00446,-5.70312"
           id="path2834-3-6-7-6-8"
           sodipodi:nodetypes="cc" />
        <path
           style="fill:#fabe1b;fill-opacity:1;stroke:#fabe1b;stroke-width:2;stroke-opacity:1"
           d="m 112.3162,572.82116 -5.70312,-6.00446"
           id="path2834-5-9-9-8-9-2"
           sodipodi:nodetypes="cc" />
      </g>
      <path
         id="rect3971-3-1"
         d="m 441.80096,504.43875 c -0.42803,0 -0.85952,0.17202 -1.1875,0.5 l -0.34375,0.34375 c -0.65596,0.65597 -0.65596,1.71903 0,2.375 l 4.875,4.84375 -4.875,4.875 c -0.65596,0.65597 -0.65596,1.71903 0,2.375 l 0.34375,0.34375 c 0.65597,0.65597 1.71904,0.65597 2.375,0 l 4.875,-4.875 4.84375,4.84375 c 0.65597,0.65597 1.71903,0.65597 2.375,0 l 0.34375,-0.3125 c 0.65597,-0.65597 0.65597,-1.71903 0,-2.375 l -4.84375,-4.84375 4.84375,-4.875 c 0.65597,-0.65597 0.65597,-1.71903 0,-2.375 l -0.34375,-0.34375 c -0.65597,-0.65597 -1.71903,-0.65597 -2.375,0 l -4.875,4.84375 -4.84375,-4.84375 c -0.32797,-0.32798 -0.75946,-0.5 -1.1875,-0.5 z"
         style="fill:#ff0000;stroke:none" />
    </g>
  </g>
</svg>
